<svg xmlns="http://www.w3.org/2000/svg" width="15" height="20" viewBox="0 0 15 20"><defs><clipPath id="a"><path fill="#fff" d="M1086.54 353.41l-.67-5.27a3.63 3.63 0 0 0-3.61-3.14h-4.97a3.63 3.63 0 0 0-3.61 3.14l-.67 5.28c-.05.37.07.83.31 1.12.25.27.61.53.98.53h10.95c.37 0 .73-.26.98-.54.24-.28.36-.75.31-1.12z"/></clipPath><clipPath id="b"><path fill="#fff" d="M1082.95 339.3a3.4 3.4 0 0 1-3.48 3.31 3.4 3.4 0 0 1-3.47-3.31 3.4 3.4 0 0 1 3.47-3.3 3.4 3.4 0 0 1 3.48 3.3z"/></clipPath></defs><path fill="none" stroke="#818fa4" stroke-miterlimit="50" stroke-width="2" d="M1086.54 353.41l-.67-5.27a3.63 3.63 0 0 0-3.61-3.14h-4.97a3.63 3.63 0 0 0-3.61 3.14l-.67 5.28c-.05.37.07.83.31 1.12.25.27.61.53.98.53h10.95c.37 0 .73-.26.98-.54.24-.28.36-.75.31-1.12z" clip-path="url(&quot;#a&quot;)" transform="translate(-1072 -336)"/><path fill="none" stroke="#818fa4" stroke-miterlimit="50" stroke-width="2" d="M1082.95 339.3a3.4 3.4 0 0 1-3.48 3.31 3.4 3.4 0 0 1-3.47-3.31 3.4 3.4 0 0 1 3.47-3.3 3.4 3.4 0 0 1 3.48 3.3z" clip-path="url(&quot;#b&quot;)" transform="translate(-1072 -336)"/></svg>