<svg xmlns="http://www.w3.org/2000/svg" width="14.21" height="16" viewBox="0 0 14.21 16"><path fill="none" stroke="#818fa4" stroke-miterlimit="50" d="M13.87 8.72l-1.92-1.88c-.05-.04-.1-.07-.16-.07a.2.2 0 0 0-.16.07L9.7 8.72a.68.68 0 0 0-.15.74.7.7 0 0 0 .64.42h.32a3.6 3.6 0 0 1-1.93 2.17L8.1 3.96c.54-.33.9-.92.9-1.59A1.9 1.9 0 0 0 7.1.5c-1.07 0-1.92.84-1.92 1.87 0 .67.35 1.25.9 1.58l-.48 8.1a3.59 3.59 0 0 1-1.94-2.17H4c.27 0 .53-.17.63-.42a.65.65 0 0 0-.15-.73L2.55 6.84c-.05-.04-.1-.07-.16-.07a.24.24 0 0 0-.16.07L.3 8.72a.68.68 0 0 0-.15.74.7.7 0 0 0 .64.42h.25a6.13 6.13 0 0 0 6.05 4.99 6.12 6.12 0 0 0 6.04-4.99h.26c.28 0 .53-.17.63-.42a.66.66 0 0 0-.15-.74z"/></svg>