<svg width="24" height="24" viewBox="0 0 24 24" xmlns="http://www.w3.org/2000/svg" xmlns:xlink="http://www.w3.org/1999/xlink"><title>sail</title><defs><path d="M1.024 18.064c-.563-.009-.836-.426-.608-.942L7.736.51c.119-.268.287-.403.462-.403.164 0 .333.12.47.358l9.599 16.7a.813.813 0 0 1 .12.4v.5h-.628c.4-.007.629-.209.629-.5l-17.364.5z" id="a"/><path d="M.279 3.94a.94.94 0 0 1 .05-.272l.72-2.125C1.23 1.003 1.84.554 2.423.54l20.53-.496h.057c.324.005.502.128.509.318v.022c-.004.117-.071.258-.206.41L20.577 3.87c-.38.427-1.16.774-1.73.774H1.042c-.456 0-.75-.274-.762-.657V3.94z" id="c"/></defs><g fill="none" fill-rule="evenodd"><path fill="#818FA4" d="M11.478 19.516h1.044v-18h-1.044z"/><g transform="translate(3.652)"><mask id="b" fill="#fff"><use xlink:href="#a"/></mask><path d="M7.737.51c.23-.521.647-.54.932-.045l9.598 16.7c.284.497.051.9-.528.9H1.043c-.576 0-.857-.422-.628-.943L7.737.51z" stroke="#818FA4" stroke-width="2" mask="url(#b)"/></g><g transform="translate(0 18.58)"><mask id="d" fill="#fff"><use xlink:href="#c"/></mask><path d="M1.048 1.543c.182-.54.793-.989 1.376-1.003l20.53-.496c.578-.013.737.323.358.75L20.577 3.87c-.38.427-1.16.774-1.729.774H1.041c-.575 0-.894-.436-.71-.977l.717-2.125z" stroke="#818FA4" stroke-width="2" mask="url(#d)"/></g></g></svg>