<svg xmlns="http://www.w3.org/2000/svg" width="18" height="14" viewBox="0 0 18 14"><defs><clipPath id="a"><path fill="#fff" d="M1071 264c0-1.1.9-2 2-2h14a2 2 0 0 1 2 2v10a2 2 0 0 1-2 2h-14a2 2 0 0 1-2-2z"/></clipPath><clipPath id="b"><path fill="#fff" d="M1071 264c0-1.1.9-2 2-2h14a2 2 0 0 1 2 2v3.25h-18z"/></clipPath></defs><path fill="none" stroke="#818fa4" stroke-miterlimit="50" stroke-width="2" d="M1071 264c0-1.1.9-2 2-2h14a2 2 0 0 1 2 2v10a2 2 0 0 1-2 2h-14a2 2 0 0 1-2-2z" clip-path="url(&quot;#a&quot;)" transform="translate(-1071 -262)"/><path fill="none" stroke="#818fa4" stroke-miterlimit="50" stroke-width="2" d="M1071 264c0-1.1.9-2 2-2h14a2 2 0 0 1 2 2v3.25h-18z" clip-path="url(&quot;#b&quot;)" transform="translate(-1071 -262)"/><path fill="#818fa4" d="M13 8.5c0-.28.22-.5.5-.5h1a.5.5 0 0 1 0 1h-1a.5.5 0 0 1-.5-.5zm-10 0c0-.28.22-.5.5-.5h2a.5.5 0 0 1 0 1h-2a.5.5 0 0 1-.5-.5zm5 0c0-.28.22-.5.5-.5h2a.5.5 0 0 1 0 1h-2a.5.5 0 0 1-.5-.5zm5 2c0-.28.22-.5.5-.5h1a.5.5 0 0 1 0 1h-1a.5.5 0 0 1-.5-.5zm-10 0c0-.28.22-.5.5-.5h2a.5.5 0 0 1 0 1h-2a.5.5 0 0 1-.5-.5zm5 0c0-.28.22-.5.5-.5h2a.5.5 0 0 1 0 1h-2a.5.5 0 0 1-.5-.5z"/></svg>