<svg xmlns="http://www.w3.org/2000/svg" width="15" height="18" viewBox="0 0 15 18"><defs><clipPath id="a"><path fill="#fff" d="M104.7 473.6l-2.95-4.6 2.97-4.64a.29.29 0 0 0 .01-.31.32.32 0 0 0-.27-.15H90.62v-.6a.3.3 0 0 0-.31-.3.3.3 0 0 0-.31.3v17.4c0 .17.14.3.31.3a.3.3 0 0 0 .31-.3v-6.6h13.85a.3.3 0 0 0 .3-.3.32.32 0 0 0-.07-.2z"/></clipPath></defs><path fill="none" stroke="#818fa4" stroke-miterlimit="50" stroke-width="2" d="M104.7 473.6l-2.95-4.6 2.97-4.64a.29.29 0 0 0 .01-.31.32.32 0 0 0-.27-.15H90.62v-.6a.3.3 0 0 0-.31-.3.3.3 0 0 0-.31.3v17.4c0 .17.14.3.31.3a.3.3 0 0 0 .31-.3v-6.6h13.85a.3.3 0 0 0 .3-.3.32.32 0 0 0-.07-.2z" clip-path="url(&quot;#a&quot;)" transform="translate(-90 -463)"/></svg>