<svg xmlns="http://www.w3.org/2000/svg" width="27.76" height="26.5" viewBox="0 0 27.76 26.5"><path fill="none" stroke="#818fa4" stroke-miterlimit="50" d="M23.3 25.49H2.8a.56.56 0 0 1-.55-.56v-3.09c0-.29.23-.54.52-.55l23-1.04c.42-.02.7.43.51.81l-1.98 3.81c-.2.38-.59.62-1.02.62zm-4.04-7.03l4.45-.21c.43-.02.72.43.52.81l-.2.37"/><path fill="none" stroke="#818fa4" stroke-miterlimit="50" d="M1.32 23.73h-.5a.55.55 0 0 1-.56-.55v-3.09c0-.3.23-.54.53-.56l6.16-.28m13.79 1.66l-14.48.67 2.27-2.84a.73.73 0 0 1 .55-.28l7.75-.21c.21-.01.43.06.6.19zM13.5.25l-.24 17.81M6.1 16.11h14.68c.6 0 1-.45.78-.86L14.47.65c-.22-.46-.98-.54-1.34-.14L5.4 15.15c-.36.41.03.96.7.96z"/></svg>