<svg xmlns="http://www.w3.org/2000/svg" width="12" height="17" viewBox="0 0 12 17"><defs><clipPath id="a"><path fill="#fff" d="M1077 107c-3.32 0-6 2.66-6 5.95 0 4.46 6 11.05 6 11.05s6-6.59 6-11.05a5.97 5.97 0 0 0-6-5.95zm0 8.07a2.13 2.13 0 0 1-2.14-2.12 2.14 2.14 0 0 1 4.28 0c0 1.17-.96 2.12-2.14 2.12z"/></clipPath></defs><path fill="none" stroke="#818fa4" stroke-miterlimit="50" stroke-width="2" d="M1077 107c-3.32 0-6 2.66-6 5.95 0 4.46 6 11.05 6 11.05s6-6.59 6-11.05a5.97 5.97 0 0 0-6-5.95zm0 8.07a2.13 2.13 0 0 1-2.14-2.12 2.14 2.14 0 0 1 4.28 0c0 1.17-.96 2.12-2.14 2.12z" clip-path="url(&quot;#a&quot;)" transform="translate(-1071 -107)"/></svg>