<svg xmlns="http://www.w3.org/2000/svg" width="16" height="26" viewBox="0 0 16 26"><path fill="#323c47" d="M8.44 25.97a7.68 7.68 0 0 1-7.41-5.52c-.14-.55.19-1.11.74-1.25.55-.15 1.11.18 1.26.73a5.66 5.66 0 0 0 10.44.95 10.3 10.3 0 0 1-2.85-.72 7.83 7.83 0 0 1-2.18-1.42c-.54-.45-1-.84-1.76-1.15a19.32 19.32 0 0 0-3.84-1.04c-.82-.16-1.12-.22-1.39-.59-.08-.12-.45-.72.15-1.36.84-.92 11.52-12.94 11.63-13.06l.03-.04a1.53 1.53 0 0 1 1.7-.39c.58.23.95.81.95 1.47l.01 12.78c0 .56-.46 1.02-1.03 1.02-.57 0-1.03-.45-1.03-1.02l-.01-11.43-9.61 10.81c.94.2 2.13.5 3.24.96 1.04.44 1.7.99 2.29 1.48.51.43.96.8 1.65 1.09 1.4.59 2.66.62 3.2.63.36.01.74.02 1.05.38h.01c.19.22.27.5.24.78l-.01.1a7.31 7.31 0 0 1-2.36 3.88 7.6 7.6 0 0 1-5.11 1.93"/></svg>