<svg xmlns="http://www.w3.org/2000/svg" width="97" height="26" viewBox="0 0 97 26"><path fill="#323c47" d="M8.44 25.97a7.68 7.68 0 0 1-7.41-5.52c-.14-.55.19-1.11.74-1.25.55-.15 1.11.18 1.26.73a5.66 5.66 0 0 0 10.44.95 10.3 10.3 0 0 1-2.85-.72 7.83 7.83 0 0 1-2.18-1.42c-.54-.45-1-.84-1.76-1.15a19.32 19.32 0 0 0-3.84-1.04c-.82-.16-1.12-.22-1.39-.59-.08-.12-.45-.72.15-1.36.84-.92 11.52-12.94 11.63-13.06l.03-.04a1.53 1.53 0 0 1 1.7-.39c.58.23.95.81.95 1.47l.01 12.78c0 .56-.46 1.02-1.03 1.02-.57 0-1.03-.45-1.03-1.02l-.01-11.43-9.61 10.81c.94.2 2.13.5 3.24.96 1.04.44 1.7.99 2.29 1.48.51.43.96.8 1.65 1.09 1.4.59 2.66.62 3.2.63.36.01.74.02 1.05.38h.01c.19.22.27.5.24.78l-.01.1a7.31 7.31 0 0 1-2.36 3.88 7.6 7.6 0 0 1-5.11 1.93m23.74-10.56a7.57 7.57 0 0 0-1.22-.69l-1.17-.48-.99-.37a4.46 4.46 0 0 1-.79-.41c-.2-.13-.37-.29-.5-.46a.63.63 0 0 1-.12-.4 1 1 0 0 1 .11-.52c.08-.16.2-.29.35-.41.15-.12.33-.21.55-.28.26-.07.54-.1.86-.1.58 0 1.03.14 1.37.42.2.17.48.75.6 1l.03.06c.25.5.83.76 1.37.61a.72.72 0 0 0 .2-.09c.47-.22.73-.74.6-1.24a3.77 3.77 0 0 0-1.34-2.15c-.76-.6-1.68-.9-2.76-.9-.56 0-1.07.07-1.55.22a3.73 3.73 0 0 0-2.24 1.82c-.22.43-.34.92-.34 1.47 0 .57.14 1.07.41 1.49a4.72 4.72 0 0 0 2.05 1.63c.29.12.63.26.95.37l1.15.47c.32.12.64.29.95.48.23.14.41.31.55.51.11.16.17.38.17.64 0 .25-.04.46-.12.63-.09.18-.22.34-.4.5a2.6 2.6 0 0 1-1.56.5 2.3 2.3 0 0 1-1.61-.54 1.84 1.84 0 0 1-.4-.57 3.14 3.14 0 0 1-.17-.55 1.1 1.1 0 0 0-1.37-.86c-.54.15-.88.69-.78 1.24a4.14 4.14 0 0 0 1.26 2.38c.4.36.86.63 1.35.79a5.14 5.14 0 0 0 3.39.01c.53-.17 1-.42 1.38-.75a3.5 3.5 0 0 0 .8-4.38 3.82 3.82 0 0 0-1.02-1.09m11.38.47h-2.49l1.24-3.11zm-.19-6.2A1.1 1.1 0 0 0 42.35 9h-.12c-.45 0-.85.27-1.02.68l-4.13 10.25c-.14.34-.1.72.11 1.01.2.3.54.48.91.48.45 0 .85-.27 1.01-.68l1.08-2.72h4.22l1.07 2.72a1.1 1.1 0 0 0 1.93.2c.2-.3.24-.68.11-1.01zM52.11 9h-.02c-.6 0-1.09.49-1.09 1.09v10.25c0 .6.49 1.08 1.11 1.08.6 0 1.1-.48 1.1-1.08V10.09c0-.6-.5-1.09-1.1-1.09m11.52 10.25H59.2v-9.16c0-.6-.49-1.09-1.11-1.09-.6 0-1.09.49-1.09 1.09v10.25c0 .6.49 1.08 1.09 1.08h5.54a1.09 1.09 0 1 0 0-2.17M68.11 9h-.02c-.6 0-1.09.49-1.09 1.09v10.25c0 .6.49 1.08 1.11 1.08.6 0 1.09-.48 1.09-1.08V10.09c0-.6-.49-1.09-1.09-1.09m8.1 3.24a3.14 3.14 0 0 1 2.49-1.08 3.28 3.28 0 0 1 3.07 2.01 1.1 1.1 0 0 0 2 .01c.14-.29.14-.62.01-.91a5.64 5.64 0 0 0-1.88-2.32A5.44 5.44 0 0 0 78.73 9a5.34 5.34 0 0 0-4.13 1.8c-.51.58-.9 1.26-1.18 2.04a7.68 7.68 0 0 0 0 5.01c.28.78.67 1.47 1.18 2.04a5.26 5.26 0 0 0 4.13 1.8c1.2 0 2.26-.32 3.17-.95a5.64 5.64 0 0 0 1.88-2.32c.13-.29.13-.62-.01-.91a1.1 1.1 0 0 0-.72-.59 1.09 1.09 0 0 0-1.28.6 3.28 3.28 0 0 1-3.07 2.01c-.53 0-.98-.09-1.4-.27a3.02 3.02 0 0 1-1.09-.81c-.32-.36-.58-.8-.76-1.3a5.81 5.81 0 0 1 0-3.6c.18-.51.44-.95.76-1.31m16.35 3.64h-2.49l1.24-3.11zm-.19-6.2A1.1 1.1 0 0 0 91.35 9h-.12c-.45 0-.85.27-1.02.68l-4.13 10.25c-.14.34-.1.72.11 1.01.2.3.54.48.91.48.45 0 .85-.27 1.01-.68l1.08-2.72h4.22l1.07 2.72a1.1 1.1 0 0 0 1.93.2c.2-.3.24-.68.11-1.01z"/></svg>