<svg xmlns="http://www.w3.org/2000/svg" width="11" height="15" viewBox="0 0 11 15"><defs><clipPath id="a"><path fill="#fff" d="M495.96 123.35a.71.71 0 0 0-1.02.01c-.36.37-.79.48-1.18.51a26.21 26.21 0 0 0-1.63-9.04c-.42-1.12-.9-2.07-1.39-2.75-.5-.72-.96-1.08-1.35-1.08-.35 0-.66.39-1.03 1.31-.27.67-.56 1.61-.87 2.78a55.98 55.98 0 0 0-1.25 6.31c-.03.78.41 1.06.79 1.16h.03l4.99.65v.66h-5.32c-.4 0-.73.33-.73.73v.49c0 .13.11.24.24.24h7.28c.38 0 1.53 0 2.46-.95a.7.7 0 0 0 .2-.52.72.72 0 0 0-.22-.51z"/></clipPath></defs><path fill="#e1e8f4" d="M9.96 12.35a.71.71 0 0 0-1.02.01c-.36.37-.79.48-1.18.51a26.21 26.21 0 0 0-1.63-9.04c-.42-1.12-.9-2.07-1.39-2.75C4.24.36 3.78 0 3.39 0c-.35 0-.66.39-1.03 1.31-.27.67-.56 1.61-.87 2.78A55.98 55.98 0 0 0 .24 10.4c-.03.78.41 1.06.79 1.16h.03l4.99.65v.66H.73c-.4 0-.73.33-.73.73v.49c0 .13.11.24.24.24h7.28c.38 0 1.53 0 2.46-.95a.7.7 0 0 0 .2-.52.72.72 0 0 0-.22-.51z"/><path fill="none" stroke="#62738d" stroke-miterlimit="50" stroke-width="2" d="M495.96 123.35a.71.71 0 0 0-1.02.01c-.36.37-.79.48-1.18.51a26.21 26.21 0 0 0-1.63-9.04c-.42-1.12-.9-2.07-1.39-2.75-.5-.72-.96-1.08-1.35-1.08-.35 0-.66.39-1.03 1.31-.27.67-.56 1.61-.87 2.78a55.98 55.98 0 0 0-1.25 6.31c-.03.78.41 1.06.79 1.16h.03l4.99.65v.66h-5.32c-.4 0-.73.33-.73.73v.49c0 .13.11.24.24.24h7.28c.38 0 1.53 0 2.46-.95a.7.7 0 0 0 .2-.52.72.72 0 0 0-.22-.51z" clip-path="url(&quot;#a&quot;)" transform="translate(-486 -111)"/></svg>