<svg xmlns="http://www.w3.org/2000/svg" width="15" height="12" viewBox="0 0 15 12"><defs><clipPath id="a"><path fill="#fff" d="M599 116c0-1.1.9-2 2-2h11a2 2 0 0 1 2 2v8a2 2 0 0 1-2 2h-11a2 2 0 0 1-2-2z"/></clipPath><clipPath id="b"><path fill="#fff" d="M599 116c0-1.1.9-2 2-2h11a2 2 0 0 1 2 2v2.5h-15z"/></clipPath><clipPath id="c"><path fill="#fff" d="M602 122.5c0-.28.22-.5.5-.5h1a.5.5 0 0 1 0 1h-1a.5.5 0 0 1-.5-.5z"/></clipPath><clipPath id="d"><path fill="#fff" d="M606 122.5c0-.28.22-.5.5-.5h1a.5.5 0 0 1 0 1h-1a.5.5 0 0 1-.5-.5z"/></clipPath><clipPath id="e"><path fill="#fff" d="M610 122.5c0-.28.22-.5.5-.5h1a.5.5 0 0 1 0 1h-1a.5.5 0 0 1-.5-.5z"/></clipPath></defs><path fill="#e2e9f4" d="M0 2C0 .9.9 0 2 0h11a2 2 0 0 1 2 2v8a2 2 0 0 1-2 2H2a2 2 0 0 1-2-2z"/><path fill="none" stroke="#62738d" stroke-miterlimit="50" stroke-width="2" d="M599 116c0-1.1.9-2 2-2h11a2 2 0 0 1 2 2v8a2 2 0 0 1-2 2h-11a2 2 0 0 1-2-2z" clip-path="url(&quot;#a&quot;)" transform="translate(-599 -114)"/><path fill="#e2e9f4" d="M0 2C0 .9.9 0 2 0h11a2 2 0 0 1 2 2v2.5H0z"/><path fill="none" stroke="#62738d" stroke-miterlimit="50" stroke-width="2" d="M599 116c0-1.1.9-2 2-2h11a2 2 0 0 1 2 2v2.5h-15z" clip-path="url(&quot;#b&quot;)" transform="translate(-599 -114)"/><path fill="#e2e9f4" d="M3 8.5c0-.28.22-.5.5-.5h1a.5.5 0 0 1 0 1h-1a.5.5 0 0 1-.5-.5z"/><path fill="none" stroke="#62738d" stroke-miterlimit="50" stroke-width="2" d="M602 122.5c0-.28.22-.5.5-.5h1a.5.5 0 0 1 0 1h-1a.5.5 0 0 1-.5-.5z" clip-path="url(&quot;#c&quot;)" transform="translate(-599 -114)"/><path fill="#e2e9f4" d="M7 8.5c0-.28.22-.5.5-.5h1a.5.5 0 0 1 0 1h-1a.5.5 0 0 1-.5-.5z"/><path fill="none" stroke="#62738d" stroke-miterlimit="50" stroke-width="2" d="M606 122.5c0-.28.22-.5.5-.5h1a.5.5 0 0 1 0 1h-1a.5.5 0 0 1-.5-.5z" clip-path="url(&quot;#d&quot;)" transform="translate(-599 -114)"/><path fill="#e2e9f4" d="M11 8.5c0-.28.22-.5.5-.5h1a.5.5 0 0 1 0 1h-1a.5.5 0 0 1-.5-.5z"/><path fill="none" stroke="#62738d" stroke-miterlimit="50" stroke-width="2" d="M610 122.5c0-.28.22-.5.5-.5h1a.5.5 0 0 1 0 1h-1a.5.5 0 0 1-.5-.5z" clip-path="url(&quot;#e&quot;)" transform="translate(-599 -114)"/></svg>