<svg width="16" height="11" viewBox="0 0 16 11" xmlns="http://www.w3.org/2000/svg" xmlns:xlink="http://www.w3.org/1999/xlink"><title>Rectangle 5</title><defs><path d="M5.536 8.828h4.858v-1.79c0-1.106.634-1.37 1.412-.59l3.54 3.539c.78.78.779 2.046 0 2.825l-3.54 3.539c-.78.78-1.412.517-1.412-.59v-1.933H5.536v1.932c0 1.108-.632 1.37-1.412.59l-3.54-3.538a1.998 1.998 0 0 1 0-2.825l3.54-3.54c.779-.778 1.412-.515 1.412.591v1.79z" id="a"/></defs><g transform="translate(0 -6)" fill="none" fill-rule="evenodd"><use fill="#E2E9F4" xlink:href="#a"/><path stroke="#62738D" d="M5.536 9.328h5.358v-2.29c0-.66.095-.7.559-.237l3.54 3.54a1.498 1.498 0 0 1 0 2.117l-3.54 3.54c-.465.464-.559.425-.559-.238v-2.432H5.036v2.432c0 .663-.094.702-.559.237L.938 12.458a1.498 1.498 0 0 1 0-2.118l3.54-3.539c.463-.464.558-.424.558.237v2.29h.5z"/></g></svg>