<svg xmlns="http://www.w3.org/2000/svg" width="11" height="12.75" viewBox="0 0 11 12.75"><path fill="#e1e8f4" d="M10.84 6.84L9.33 5.36a.21.21 0 0 0-.13-.05.21.21 0 0 0-.13.05L7.56 6.84a.53.53 0 0 0-.12.58c.08.2.28.33.5.33h.26c-.24.75-.8 1.38-1.53 1.71L6.3 3.1c.42-.26.71-.72.71-1.25A1.5 1.5 0 0 0 5.5.37a1.47 1.47 0 1 0-.8 2.72l-.37 6.37a2.84 2.84 0 0 1-1.53-1.7h.26c.22 0 .42-.13.5-.34a.53.53 0 0 0-.12-.58L1.93 5.36a.21.21 0 0 0-.13-.05.17.17 0 0 0-.12.05L.16 6.84a.53.53 0 0 0-.12.58c.08.2.28.33.5.33h.2a4.84 4.84 0 0 0 9.52 0h.2c.22 0 .42-.13.5-.33a.53.53 0 0 0-.12-.58z"/><path fill="none" stroke="#62738d" stroke-miterlimit="50" stroke-width=".75" d="M10.84 6.84L9.33 5.36a.21.21 0 0 0-.13-.05.21.21 0 0 0-.13.05L7.56 6.84a.53.53 0 0 0-.12.58c.08.2.28.33.5.33h.26c-.24.75-.8 1.38-1.53 1.71L6.3 3.1c.42-.26.71-.72.71-1.25A1.5 1.5 0 0 0 5.5.37a1.47 1.47 0 1 0-.8 2.72l-.37 6.37a2.84 2.84 0 0 1-1.53-1.7h.26c.22 0 .42-.13.5-.34a.53.53 0 0 0-.12-.58L1.93 5.36a.21.21 0 0 0-.13-.05.17.17 0 0 0-.12.05L.16 6.84a.53.53 0 0 0-.12.58c.08.2.28.33.5.33h.2a4.84 4.84 0 0 0 9.52 0h.2c.22 0 .42-.13.5-.33a.53.53 0 0 0-.12-.58z"/></svg>