<svg xmlns="http://www.w3.org/2000/svg" width="9" height="13" viewBox="0 0 9 13"><defs><clipPath id="a"><path fill="#fff" d="M438 144c0-1.1.9-2 2-2h5a2 2 0 0 1 2 2v9a2 2 0 0 1-2 2h-5a2 2 0 0 1-2-2z"/></clipPath><clipPath id="b"><path fill="#fff" d="M440 146.5a2.5 2.5 0 1 1 5 0 2.5 2.5 0 0 1-5 0z"/></clipPath></defs><path fill="#e2e9f4" d="M0 2C0 .9.9 0 2 0h5a2 2 0 0 1 2 2v9a2 2 0 0 1-2 2H2a2 2 0 0 1-2-2z"/><path fill="none" stroke="#62738d" stroke-miterlimit="50" stroke-width="2" d="M438 144c0-1.1.9-2 2-2h5a2 2 0 0 1 2 2v9a2 2 0 0 1-2 2h-5a2 2 0 0 1-2-2z" clip-path="url(&quot;#a&quot;)" transform="translate(-438 -142)"/><path fill="#e2e9f4" d="M2 4.5a2.5 2.5 0 1 1 5 0 2.5 2.5 0 0 1-5 0z"/><path fill="none" stroke="#62738d" stroke-miterlimit="50" stroke-width="2" d="M440 146.5a2.5 2.5 0 1 1 5 0 2.5 2.5 0 0 1-5 0z" clip-path="url(&quot;#b&quot;)" transform="translate(-438 -142)"/></svg>