<svg xmlns="http://www.w3.org/2000/svg" width="11" height="14" viewBox="0 0 11 14"><defs><clipPath id="a"><path fill="#fff" d="M354.32 153.14l-.52-3.85a2.7 2.7 0 0 0-2.74-2.29h-3.79c-1.4 0-2.57.97-2.75 2.29l-.51 3.86c-.04.26.05.6.24.81.19.2.46.38.74.38h8.34c.29 0 .56-.18.75-.39.18-.2.27-.54.24-.81z"/></clipPath><clipPath id="b"><path fill="#fff" d="M351.78 143.94a2.92 2.92 0 0 1-2.89 2.94 2.92 2.92 0 0 1-2.89-2.94 2.9 2.9 0 0 1 2.89-2.94 2.9 2.9 0 0 1 2.89 2.94z"/></clipPath></defs><path fill="#e2e9f4" d="M10.32 12.14L9.8 8.29A2.7 2.7 0 0 0 7.06 6H3.27C1.87 6 .7 6.97.52 8.29l-.51 3.86c-.04.26.05.6.24.81.19.2.46.38.74.38h8.34c.29 0 .56-.18.75-.39.18-.2.27-.54.24-.81z"/><path fill="none" stroke="#62738d" stroke-miterlimit="50" stroke-width="2" d="M354.32 153.14l-.52-3.85a2.7 2.7 0 0 0-2.74-2.29h-3.79c-1.4 0-2.57.97-2.75 2.29l-.51 3.86c-.04.26.05.6.24.81.19.2.46.38.74.38h8.34c.29 0 .56-.18.75-.39.18-.2.27-.54.24-.81z" clip-path="url(&quot;#a&quot;)" transform="translate(-344 -141)"/><path fill="#e2e9f4" d="M7.78 2.94a2.92 2.92 0 0 1-2.89 2.94A2.92 2.92 0 0 1 2 2.94 2.9 2.9 0 0 1 4.89 0a2.9 2.9 0 0 1 2.89 2.94z"/><path fill="none" stroke="#62738d" stroke-miterlimit="50" stroke-width="2" d="M351.78 143.94a2.92 2.92 0 0 1-2.89 2.94 2.92 2.92 0 0 1-2.89-2.94 2.9 2.9 0 0 1 2.89-2.94 2.9 2.9 0 0 1 2.89 2.94z" clip-path="url(&quot;#b&quot;)" transform="translate(-344 -141)"/></svg>